<svg width="800" height="600" xmlns="http://www.w3.org/2000/svg" style="vector-effect: non-scaling-stroke;" stroke="null">
 <g id="Layer_1">
  <title>Layer 1</title>
  <path id="svg_14" d="m336.39007,501.38875c3.43405,-33.13607 11.48415,-67.37186 29.45189,-95.80607c17.17014,-18.67309 44.88312,-18.11477 68.02808,-24.50309c-32.42922,-7.90615 -62.70042,-21.90485 -92.40203,-36.71637c-48.61588,-19.18452 -98.10171,8.45752 -141.92333,27.84998c-32.53662,14.13436 -64.72136,30.80913 -99.75654,37.80827c-22.98263,-14.51745 -3.78833,-55.7038 12.37302,-73.09391c20.46227,-24.01616 50.75123,-36.42352 72.93464,-58.3541c9.75887,-30.97627 -35.20633,-38.59728 -55.40762,-50.76842c-31.32657,-12.89512 -57.94385,-34.01593 -81.75912,-57.59757c55.30694,-2.93006 104.23086,28.29341 154.13528,47.25106c26.99253,8.88331 52.45079,21.3775 77.68918,33.73648c11.57144,-0.05312 50.83715,7.75671 46.92386,-4.23908c-29.43298,-1.18652 -26.48278,-35.80299 -6.67581,-49.52727c29.11233,-20.82802 64.60338,-33.12418 88.83955,-60.71248c10.63268,-7.75999 16.22801,-26.74137 25.21429,-32.73062c38.74819,27.53231 61.41865,70.96306 82.79705,112.14865c34.81185,7.15066 69.96933,12.95065 105.45153,14.70118c34.65023,14.40375 64.23601,39.5069 91.36581,65.00031c20.55829,14.10072 26.03713,52.46984 -1.90808,60.16724c-68.94611,33.76271 -145.93103,44.08383 -221.8545,47.32847c-10.69665,-0.6857 -20.01051,0.3818 -20.08219,13.1673c-6.68737,18.20925 -9.42108,39.36973 -22.01043,54.19603c-13.89396,-3.23058 -0.73136,-40.44013 -15.00058,-22.76075c-28.06735,27.70002 -61.82593,48.47407 -96.424,67.05158c0,-4.53224 -0.00005,-9.06482 0.00005,-13.59679l0,-0.00002z" stroke="#000" fill="#7AD6CA"/>
 </g>

</svg>