<!DOCTYPE svg PUBLIC "-//W3C//DTD SVG 20010904//EN" "http://www.w3.org/TR/2001/REC-SVG-20010904/DTD/svg10.dtd">
<svg version="1.0" xmlns="http://www.w3.org/2000/svg" width="1059px" height="1051px" viewBox="0 0 10590 10510" preserveAspectRatio="xMidYMid meet">
<g id="layer101" fill="#1a231c" stroke="none">
<path d="M4880 10499 c-80 -4 -240 -21 -357 -38 -550 -80 -969 -210 -1541 -478 -178 -83 -441 -230 -511 -284 -13 -11 -31 -19 -40 -19 -22 0 -327 -216 -458 -325 -131 -109 -568 -538 -703 -690 -141 -160 -229 -276 -371 -490 -134 -202 -208 -325 -283 -470 -60 -118 -161 -333 -170 -365 -4 -14 -23 -55 -42 -91 -18 -36 -49 -113 -68 -170 -19 -57 -44 -126 -55 -154 -11 -27 -32 -90 -47 -140 -15 -49 -35 -116 -46 -148 -72 -221 -163 -722 -178 -977 -22 -392 -5 -899 39 -1170 38 -227 74 -414 90 -460 29 -85 50 -160 62 -215 5 -27 20 -76 33 -110 12 -33 31 -87 41 -120 10 -33 22 -64 27 -69 4 -6 8 -18 8 -28 0 -9 6 -32 14 -50 8 -18 34 -85 57 -148 49 -134 202 -454 313 -655 91 -164 277 -445 373 -564 37 -47 81 -103 97 -125 101 -143 500 -554 721 -742 77 -65 147 -123 157 -129 10 -5 115 -79 235 -163 193 -136 247 -168 466 -278 137 -68 267 -129 290 -135 23 -7 52 -21 63 -31 66 -59 636 -254 944 -323 164 -37 493 -91 680 -112 204 -22 914 -25 1095 -5 400 46 770 122 1080 222 247 80 612 236 645 275 9 10 16 12 20 5 9 -15 289 130 460 238 461 290 694 476 1045 833 195 198 278 294 398 459 42 58 94 128 116 155 69 89 247 366 317 495 109 200 259 517 297 625 19 55 46 125 60 156 14 30 48 129 77 220 28 90 64 206 80 257 104 328 172 850 171 1312 0 345 -7 530 -26 625 -8 44 -15 96 -15 116 0 46 -35 250 -59 349 -10 41 -22 95 -25 120 -3 25 -15 72 -25 105 -11 33 -28 94 -39 135 -59 223 -187 538 -355 870 -138 274 -241 440 -480 777 -142 201 -424 515 -619 692 -322 290 -561 471 -840 636 -709 418 -1373 657 -2123 764 -264 38 -706 50 -1095 30z"/>
</g>
<g id="layer102" fill="#221d1e" stroke="none">
<path d="M4880 10499 c-80 -4 -240 -21 -357 -38 -550 -80 -969 -210 -1541 -478 -178 -83 -441 -230 -511 -284 -13 -11 -31 -19 -40 -19 -22 0 -327 -216 -458 -325 -131 -109 -568 -538 -703 -690 -141 -160 -229 -276 -371 -490 -134 -202 -208 -325 -283 -470 -60 -118 -161 -333 -170 -365 -4 -14 -23 -55 -42 -91 -18 -36 -49 -113 -68 -170 -19 -57 -44 -126 -55 -154 -11 -27 -32 -90 -47 -140 -15 -49 -35 -116 -46 -148 -72 -221 -163 -722 -178 -977 -22 -392 -5 -899 39 -1170 38 -227 74 -414 90 -460 29 -85 50 -160 62 -215 5 -27 20 -76 33 -110 12 -33 31 -87 41 -120 10 -33 22 -64 27 -69 4 -6 8 -18 8 -28 0 -9 6 -32 14 -50 8 -18 34 -85 57 -148 49 -134 202 -454 313 -655 91 -164 277 -445 373 -564 37 -47 81 -103 97 -125 101 -143 500 -554 721 -742 77 -65 147 -123 157 -129 10 -5 115 -79 235 -163 193 -136 247 -168 466 -278 137 -68 267 -129 290 -135 23 -7 52 -21 63 -31 66 -59 636 -254 944 -323 164 -37 493 -91 680 -112 204 -22 914 -25 1095 -5 400 46 770 122 1080 222 247 80 612 236 645 275 9 10 16 12 20 5 9 -15 289 130 460 238 461 290 694 476 1045 833 195 198 278 294 398 459 42 58 94 128 116 155 69 89 247 366 317 495 109 200 259 517 297 625 19 55 46 125 60 156 14 30 48 129 77 220 28 90 64 206 80 257 104 328 172 850 171 1312 0 345 -7 530 -26 625 -8 44 -15 96 -15 116 0 46 -35 250 -59 349 -10 41 -22 95 -25 120 -3 25 -15 72 -25 105 -11 33 -28 94 -39 135 -59 223 -187 538 -355 870 -138 274 -241 440 -480 777 -142 201 -424 515 -619 692 -322 290 -561 471 -840 636 -709 418 -1373 657 -2123 764 -264 38 -706 50 -1095 30z m2415 -4469 c3 -5 12 -7 20 -3 8 3 15 1 15 -5 0 -11 -34 -22 -72 -22 -30 0 -31 1 -22 24 7 17 49 22 59 6z m245 0 c0 -5 7 -10 16 -10 27 0 5 -18 -31 -24 -25 -5 -42 -2 -57 9 l-22 15 22 0 c12 0 22 5 22 10 0 6 11 10 25 10 14 0 25 -4 25 -10z m-279 -82 c0 -10 2 -10 5 -1 5 12 34 7 34 -7 0 -8 -60 -23 -67 -17 -2 3 -1 12 3 21 7 19 24 21 25 4z m-621 -253 c1 -5 -11 -11 -25 -13 -18 -2 -23 0 -19 11 6 16 44 18 44 2z m38 -55 c-15 -23 -30 -22 -34 3 -1 12 5 17 22 17 22 0 23 -2 12 -20z m-44 -32 c-7 -11 -31 1 -31 16 0 11 4 12 18 3 10 -6 16 -14 13 -19z m-79 -28 c-3 -5 -17 -10 -31 -10 -14 0 -22 4 -19 10 3 6 17 10 31 10 14 0 22 -4 19 -10z m-155 -10 c0 -5 -9 -10 -19 -10 -11 0 -23 5 -26 10 -4 6 5 10 19 10 14 0 26 -4 26 -10z m67 -31 c-36 -27 -68 -33 -60 -11 9 24 23 32 57 32 l29 0 -26 -21z m-65 -53 c10 -16 -17 -28 -47 -20 -29 7 -30 10 -12 29 13 15 47 10 59 -9z m-64 -71 c1 -6 -2 -10 -8 -9 -25 3 -30 5 -30 12 0 12 34 8 38 -3z m-1028 -1145 c0 -5 11 -10 25 -10 14 0 25 -5 25 -11 0 -7 -9 -9 -23 -5 -13 3 -62 6 -110 7 -67 1 -87 5 -87 15 0 11 19 14 85 14 50 0 85 -4 85 -10z m310 6 c0 -2 3 -11 6 -19 9 -23 -50 -33 -78 -13 l-22 16 22 0 c12 0 22 5 22 10 0 6 11 10 25 10 14 0 25 -2 25 -4z m-645 -17 c28 -1 27 -2 -9 -10 -32 -8 -43 -6 -55 7 -15 15 -14 16 9 10 14 -3 39 -6 55 -7z m102 -51 c-9 -5 -40 -6 -69 -2 -64 9 -33 21 39 15 35 -2 42 -6 30 -13z m241 7 c-9 -10 -158 -14 -163 -4 -4 5 29 9 81 9 48 0 85 -2 82 -5z m155 -6 c-8 -8 -16 -8 -30 0 -16 9 -14 10 12 11 21 0 26 -3 18 -11z m127 -14 c0 -8 5 -15 12 -15 6 0 8 -3 5 -7 -9 -9 -67 -11 -67 -3 0 4 -10 11 -22 15 -21 7 -20 8 12 15 54 12 60 11 60 -5z m-610 -5 c-33 -11 -52 -12 -46 -2 2 4 19 8 38 9 30 1 31 1 8 -7z m728 -135 c0 -28 -17 -35 -19 -7 -1 11 -4 9 -9 -8 l-8 -25 -1 27 c-1 23 8 34 30 37 4 1 7 -10 7 -24z m-110 -113 c-4 -21 -42 -23 -46 -2 -2 10 6 16 23 18 20 1 26 -2 23 -16z m-58 -12 c0 -15 -7 -20 -25 -20 -32 0 -34 27 -2 33 12 2 23 5 25 6 1 0 2 -8 2 -19z m-70 -5 c0 -10 -10 -15 -27 -15 -26 0 -26 1 -7 15 25 19 34 19 34 0z m-120 -55 c0 -22 -15 -27 -24 -7 -3 8 -8 7 -16 -5 -9 -15 -26 -18 -95 -18 -47 0 -85 2 -85 5 0 3 5 11 12 18 8 10 28 10 81 3 45 -6 71 -6 75 1 7 10 28 21 45 22 4 1 7 -8 7 -19z m-360 -4 c0 -8 -17 -16 -47 -20 -49 -6 -73 1 -35 11 12 3 22 9 22 14 0 5 14 9 30 9 19 0 30 -5 30 -14z m630 0 c0 -22 -18 -29 -58 -21 l-37 7 30 13 c40 18 65 18 65 1z"/>
</g>
<g id="layer103" fill="#4b1b12" stroke="none">
</g>
<g id="layer104" fill="#000000" stroke="none">
<path d="M5030 10504 c37 -8 88 -9 84 -2 -3 4 -26 7 -52 7 -26 -1 -40 -3 -32 -5z"/>
<path d="M5238 10503 c17 -2 47 -2 65 0 17 2 3 4 -33 4 -36 0 -50 -2 -32 -4z"/>
<path d="M5341 10505 c8 -7 199 -8 206 -1 4 3 -42 6 -102 6 -60 0 -106 -2 -104 -5z"/>
<path d="M5608 10493 c18 -2 45 -2 60 0 15 2 0 4 -33 4 -33 0 -45 -2 -27 -4z"/>
<path d="M5714 10489 c-3 -5 12 -9 33 -9 21 0 63 -2 93 -5 36 -4 48 -3 35 3 -29 13 -154 21 -161 11z"/>
<path d="M5905 10470 c-3 -6 0 -10 8 -10 8 0 36 -3 63 -6 33 -4 46 -3 39 3 -14 15 -103 25 -110 13z"/>
<path d="M4532 10458 c-12 -5 -8 -7 13 -7 17 0 36 3 44 8 17 11 -29 10 -57 -1z"/>
<path d="M4416 10443 c-77 -13 -110 -24 -70 -22 45 2 168 25 159 30 -5 4 -46 0 -89 -8z"/>
<path d="M6030 10450 c0 -5 9 -10 21 -10 11 0 17 5 14 10 -3 6 -13 10 -21 10 -8 0 -14 -4 -14 -10z"/>
<path d="M6090 10441 c0 -4 21 -11 48 -14 26 -4 65 -9 87 -13 67 -11 30 8 -42 22 -82 16 -93 17 -93 5z"/>
<path d="M4270 10422 c-35 -5 -50 -22 -19 -21 13 1 35 4 49 8 31 9 7 19 -30 13z"/>
<path d="M6270 10410 c0 -6 8 -10 19 -10 10 0 34 -2 52 -5 25 -4 29 -3 14 3 -34 15 -85 22 -85 12z"/>
<path d="M6380 10392 c0 -5 36 -18 80 -28 44 -11 80 -16 80 -12 0 4 -4 9 -10 9 -5 1 -13 2 -17 4 -38 10 -62 15 -85 19 -15 3 -32 7 -38 11 -5 3 -10 2 -10 -3z"/>
<path d="M3963 10352 c-34 -10 -65 -21 -70 -26 -4 -5 1 -6 12 -3 11 3 46 11 78 17 31 6 57 16 57 21 0 11 0 11 -77 -9z"/>
<path d="M6550 10352 c0 -9 73 -32 101 -32 18 0 5 10 -20 15 -11 3 -30 7 -41 9 -11 3 -25 8 -30 11 -6 3 -10 2 -10 -3z"/>
<path d="M3812 10310 c-50 -17 -76 -30 -56 -30 22 1 126 38 118 42 -5 3 -33 -2 -62 -12z"/>
<path d="M6740 10296 c42 -17 58 -20 45 -7 -6 5 -26 12 -45 15 l-35 6 35 -14z"/>
<path d="M5060 8610 c0 -5 14 -10 30 -10 17 0 30 5 30 10 0 6 -13 10 -30 10 -16 0 -30 -4 -30 -10z"/>
<path d="M4940 8600 c0 -5 16 -10 36 -10 21 0 33 4 29 10 -3 6 -19 10 -36 10 -16 0 -29 -4 -29 -10z"/>
<path d="M4810 8593 c-19 -3 -40 -9 -45 -13 -6 -5 -21 -7 -33 -3 -14 3 -22 1 -22 -7 0 -9 11 -11 38 -7 20 3 65 9 100 13 34 4 62 11 62 15 0 9 -35 9 -100 2z"/>
<path d="M4595 8554 c-80 -16 -100 -22 -92 -30 7 -7 179 26 192 37 12 12 -15 10 -100 -7z"/>
<path d="M4380 8503 c-30 -8 -59 -19 -65 -25 -7 -8 -2 -9 15 -4 14 4 46 12 73 18 26 6 47 15 47 20 0 10 -2 10 -70 -9z"/>
<path d="M4190 8446 c-203 -70 -281 -103 -465 -196 -546 -275 -992 -671 -1313 -1165 -40 -60 -75 -115 -79 -121 -5 -5 -13 -19 -19 -30 -6 -10 -28 -50 -49 -88 -21 -38 -33 -67 -26 -65 7 3 30 36 50 74 38 72 169 277 225 351 17 23 40 54 50 69 11 14 28 36 38 48 29 33 50 59 81 97 43 53 257 268 323 325 31 28 62 55 68 60 6 6 52 42 101 80 50 38 92 72 95 75 11 13 184 122 300 190 126 73 239 129 385 190 44 18 94 39 110 46 17 6 76 27 133 44 56 18 102 37 102 41 0 12 -3 12 -110 -25z"/>
<path d="M2178 6672 c-9 -20 -27 -63 -42 -94 -14 -32 -22 -58 -17 -58 6 0 13 10 16 23 4 12 22 52 41 89 19 37 30 69 26 72 -5 3 -16 -11 -24 -32z"/>
<path d="M2095 6490 c-4 -12 -5 -24 -2 -27 3 -2 8 5 12 17 4 12 5 24 2 27 -3 2 -8 -5 -12 -17z"/>
<path d="M2071 6418 c-14 -39 -5 -51 9 -13 6 15 13 32 16 36 3 5 1 9 -4 9 -6 0 -15 -14 -21 -32z"/>
<path d="M2026 6293 c-27 -82 -32 -108 -16 -83 14 22 53 150 47 156 -3 3 -17 -30 -31 -73z"/>
<path d="M1987 6166 c-5 -15 -6 -31 -3 -34 8 -8 18 25 14 45 -3 13 -6 10 -11 -11z"/>
<path d="M1957 6048 c-10 -39 -15 -73 -13 -75 5 -5 9 9 26 85 7 29 10 55 8 57 -2 3 -12 -27 -21 -67z"/>
<path d="M1931 5945 c-1 -11 -4 -31 -6 -45 l-6 -25 11 25 c6 13 9 33 7 45 -4 19 -4 19 -6 0z"/>
<path d="M7200 5881 c-156 -56 -194 -73 -384 -178 -43 -24 -80 -43 -82 -43 -9 0 -239 -128 -301 -169 -69 -44 -73 -49 -110 -131 -20 -46 -38 -90 -39 -97 -4 -24 129 -132 211 -172 64 -32 102 -43 189 -56 220 -32 402 -4 658 100 48 19 91 35 95 35 5 0 21 12 38 27 26 23 31 35 36 92 9 108 -16 183 -87 263 -38 42 -53 86 -35 98 7 4 43 5 80 2 84 -6 107 5 123 61 17 60 10 105 -24 155 -25 36 -34 43 -54 38 -14 -4 -34 0 -47 8 -51 34 -93 28 -267 -33z"/>
<path d="M1890 5725 c0 -14 2 -25 4 -25 2 0 6 11 8 25 3 14 1 25 -3 25 -5 0 -9 -11 -9 -25z"/>
<path d="M1887 5673 c-4 -3 -7 -16 -6 -27 0 -19 1 -19 10 3 10 24 8 36 -4 24z"/>
<path d="M1876 5585 c-3 -9 -6 -26 -5 -38 1 -14 4 -9 9 13 9 37 7 52 -4 25z"/>
<path d="M1863 5425 c0 -27 2 -38 4 -22 2 15 2 37 0 50 -2 12 -4 0 -4 -28z"/>
<path d="M7643 5415 c11 -79 27 -122 51 -137 16 -10 36 11 36 38 0 28 -36 89 -70 119 l-23 20 6 -40z"/>
<path d="M1863 5050 c0 -25 2 -35 4 -22 2 12 2 32 0 45 -2 12 -4 2 -4 -23z"/>
<path d="M1868 4905 c6 -36 19 -40 14 -4 -2 16 -8 29 -12 29 -4 0 -5 -11 -2 -25z"/>
<path d="M1891 4753 c-1 -12 4 -25 9 -28 12 -7 12 2 0 30 -8 19 -9 19 -9 -2z"/>
<path d="M1927 4555 c3 -22 7 -42 9 -44 8 -9 2 45 -6 64 -7 14 -8 8 -3 -20z"/>
<path d="M1947 4458 c10 -53 32 -114 32 -95 1 21 -28 127 -34 127 -3 0 -2 -14 2 -32z"/>
<path d="M3028 4363 c-58 -60 -125 -130 -148 -158 -23 -27 -48 -54 -54 -60 -7 -5 -21 -25 -31 -44 -21 -41 -114 -171 -122 -171 -4 0 -27 13 -53 30 -177 114 -442 230 -524 230 -35 0 -36 -1 -30 -27 22 -90 102 -287 170 -418 25 -50 62 -121 82 -160 19 -38 38 -72 42 -75 4 -3 14 -18 23 -35 8 -16 29 -43 46 -60 25 -23 35 -27 49 -19 19 12 58 81 126 224 25 52 50 102 55 110 5 8 30 56 55 106 25 49 69 125 98 169 29 43 67 99 83 125 53 82 125 172 217 274 36 39 48 66 30 66 -5 0 -56 -48 -114 -107z"/>
<path d="M7963 4372 c-38 -6 -25 -41 27 -76 26 -17 95 -22 104 -7 21 34 -72 93 -131 83z"/>
<path d="M1983 4319 c4 -13 7 -27 7 -31 0 -5 4 -8 9 -8 11 0 1 49 -12 57 -6 4 -8 -2 -4 -18z"/>
<path d="M2006 4245 c8 -37 14 -45 14 -19 0 10 -5 26 -10 34 -8 11 -9 7 -4 -15z"/>
<path d="M2467 3313 c-8 -8 151 -222 166 -223 14 0 6 16 -26 52 -17 20 -39 46 -47 58 -49 70 -88 118 -93 113z"/>
<path d="M6840 10266 c0 -3 35 -16 78 -30 143 -47 341 -121 417 -156 49 -22 99 -40 90 -32 -36 34 -585 238 -585 218z"/>
<path d="M3605 10240 c-7 -12 2 -12 30 0 19 8 19 9 -2 9 -12 1 -25 -3 -28 -9z"/>
<path d="M3510 10207 c-14 -5 -29 -11 -35 -12 -24 -6 -88 -36 -84 -40 5 -4 139 42 148 51 10 10 -6 11 -29 1z"/>
<path d="M3335 10140 c-22 -11 -53 -24 -69 -30 -16 -6 -26 -13 -24 -16 8 -7 138 48 138 58 0 10 3 11 -45 -12z"/>
<path d="M3167 10068 c-21 -11 -36 -22 -34 -24 5 -5 97 35 97 41 0 10 -27 3 -63 -17z"/>
<path d="M3088 10033 c-10 -2 -18 -9 -18 -14 0 -6 10 -5 23 2 37 20 36 23 -5 12z"/>
<path d="M7480 10022 c0 -9 182 -94 188 -88 2 3 -27 19 -64 36 -38 18 -81 38 -96 45 -16 8 -28 11 -28 7z"/>
<path d="M3037 10005 c-9 -9 -20 -16 -24 -16 -15 -1 -17 -9 -2 -9 18 1 54 28 47 35 -3 3 -13 -1 -21 -10z"/>
<path d="M2905 9948 c-33 -17 -62 -34 -63 -39 -2 -5 -8 -7 -13 -3 -5 3 -9 0 -9 -6 0 -6 -4 -8 -10 -5 -5 3 -10 1 -10 -5 0 -6 -4 -9 -10 -5 -5 3 -29 -6 -52 -21 -53 -33 -53 -33 -45 -40 3 -3 18 2 34 13 15 11 81 46 146 78 64 32 117 59 117 61 0 10 -31 0 -85 -28z"/>
<path d="M7681 9926 c2 -2 52 -28 110 -58 58 -31 165 -92 238 -137 73 -44 135 -81 138 -81 3 0 21 -11 39 -25 37 -28 44 -30 44 -13 0 6 -3 8 -7 5 -3 -4 -16 1 -27 12 -43 38 -506 301 -531 301 -5 0 -6 -2 -4 -4z"/>
<path d="M2623 9793 c-18 -9 -33 -20 -33 -25 0 -9 24 2 55 26 25 19 19 19 -22 -1z"/>
<path d="M2533 9742 c-62 -40 -64 -47 -5 -16 28 15 52 31 52 35 0 11 2 12 -47 -19z"/>
<path d="M2410 9669 c0 -5 -4 -8 -9 -5 -5 3 -13 0 -19 -7 -6 -6 -44 -35 -86 -62 -42 -28 -76 -53 -76 -57 0 -6 46 23 207 129 17 11 17 12 1 12 -10 1 -18 -4 -18 -10z"/>
<path d="M8260 9602 c0 -7 11 -17 24 -22 13 -5 25 -12 27 -17 2 -5 25 -22 51 -39 26 -17 45 -34 43 -38 -3 -3 -2 -4 1 -2 3 3 37 -18 75 -45 38 -27 69 -47 69 -44 0 2 -37 32 -82 65 -46 33 -96 71 -111 84 -15 13 -40 29 -55 37 -15 8 -30 18 -34 24 -5 6 -8 5 -8 -3z"/>
<path d="M2185 9520 c-4 -6 -24 -22 -46 -36 -21 -13 -39 -29 -39 -34 0 -5 25 9 55 32 30 22 55 42 55 44 0 8 -19 3 -25 -6z"/>
<path d="M2049 9417 c-20 -17 -56 -48 -80 -67 -24 -19 -69 -59 -99 -89 -52 -51 -18 -27 44 32 16 15 63 53 103 84 40 31 73 60 73 64 0 13 -1 12 -41 -24z"/>
<path d="M8566 9378 c7 -17 64 -62 69 -56 3 3 -13 19 -35 37 -22 17 -37 26 -34 19z"/>
<path d="M8665 9300 c5 -8 18 -22 29 -30 39 -27 191 -163 285 -254 132 -127 150 -145 206 -209 28 -31 56 -59 64 -62 37 -15 -244 266 -414 414 -66 58 -133 116 -149 130 -16 14 -25 19 -21 11z"/>
<path d="M1729 9133 l-44 -47 42 33 c44 33 58 49 51 56 -2 3 -24 -16 -49 -42z"/>
<path d="M1574 8978 l-29 -33 33 29 c17 17 32 31 32 33 0 8 -8 1 -36 -29z"/>
<path d="M1360 8765 c-30 -30 -51 -55 -47 -55 5 0 34 25 65 55 31 30 52 55 47 55 -6 0 -35 -25 -65 -55z"/>
<path d="M9270 8717 c0 -2 15 -16 33 -33 l32 -29 -29 33 c-28 30 -36 37 -36 29z"/>
<path d="M1239 8629 c-123 -138 -247 -304 -236 -315 3 -3 13 9 23 28 9 18 20 35 23 38 4 3 18 21 31 40 20 29 136 169 214 258 11 12 17 22 14 22 -3 0 -34 -32 -69 -71z"/>
<path d="M9330 8647 c0 -2 15 -16 33 -33 l32 -29 -29 33 c-28 30 -36 37 -36 29z"/>
<path d="M9415 8545 c15 -22 38 -51 51 -65 35 -37 69 -82 84 -109 14 -27 101 -141 107 -141 3 0 -11 21 -30 48 -19 26 -56 79 -82 117 -26 39 -60 84 -75 100 -16 17 -41 44 -55 60 l-27 30 27 -40z"/>
<path d="M864 8123 c-53 -81 -99 -154 -101 -163 -3 -8 6 1 18 20 13 19 27 37 31 38 5 2 8 8 8 13 0 5 26 48 58 95 68 103 93 144 87 144 -3 0 -48 -66 -101 -147z"/>
<path d="M9667 8207 c64 -102 216 -318 188 -267 -18 32 -187 280 -191 280 -3 0 -1 -6 3 -13z"/>
<path d="M9860 7917 c0 -10 49 -87 55 -87 7 0 -19 49 -39 75 -8 11 -16 17 -16 12z"/>
<path d="M702 7865 c-6 -14 -10 -25 -8 -25 2 0 11 11 20 25 9 14 13 25 8 25 -5 0 -14 -11 -20 -25z"/>
<path d="M660 7790 c-11 -22 -18 -40 -15 -40 2 0 14 18 25 40 11 22 18 40 15 40 -2 0 -14 -18 -25 -40z"/>
<path d="M590 7659 c-12 -23 -20 -43 -18 -45 3 -2 14 17 26 41 27 56 20 60 -8 4z"/>
<path d="M10050 7566 c0 -11 50 -106 55 -106 3 0 -7 24 -21 53 -28 55 -34 65 -34 53z"/>
<path d="M181 6618 c0 -9 -4 -25 -7 -35 -5 -17 -5 -17 6 0 6 10 9 25 7 35 -4 15 -5 15 -6 0z"/>
<path d="M22 5822 c-7 -56 -11 -117 -11 -135 1 -18 8 22 15 88 8 66 13 127 11 135 -2 8 -8 -31 -15 -88z"/>
<path d="M22 4730 c0 -19 2 -27 5 -17 2 9 2 25 0 35 -3 9 -5 1 -5 -18z"/>
<path d="M10522 4520 c0 -19 2 -27 5 -17 2 9 2 25 0 35 -3 9 -5 1 -5 -18z"/>
<path d="M52 4485 c0 -16 4 -43 8 -60 11 -42 11 -1 1 50 -7 34 -9 35 -9 10z"/>
<path d="M10476 4285 c-3 -9 -6 -29 -5 -43 1 -22 3 -19 10 12 10 40 6 60 -5 31z"/>
<path d="M117 4120 c6 -48 21 -96 22 -70 0 8 -6 38 -14 65 l-15 50 7 -45z"/>
<path d="M10436 4094 c-9 -37 -15 -68 -13 -71 3 -2 12 26 21 63 9 37 15 68 13 71 -3 2 -12 -26 -21 -63z"/>
<path d="M201 3810 c0 -8 4 -24 9 -35 5 -13 9 -14 9 -5 0 8 -4 24 -9 35 -5 13 -9 14 -9 5z"/>
<path d="M372 3309 c6 -16 12 -28 14 -26 5 5 -13 57 -20 57 -3 0 0 -14 6 -31z"/>
<path d="M10142 3230 c-7 -11 -12 -25 -12 -32 1 -7 8 0 16 15 18 33 14 46 -4 17z"/>
<path d="M400 3236 c0 -11 73 -167 76 -163 2 2 -12 38 -30 81 -32 73 -46 98 -46 82z"/>
<path d="M480 3055 c1 -5 12 -30 26 -55 13 -25 22 -34 18 -21 -7 28 -44 92 -44 76z"/>
<path d="M605 2803 c19 -40 37 -73 39 -73 8 0 -37 98 -56 121 -10 13 -3 -9 17 -48z"/>
<path d="M9930 2790 c-11 -22 -18 -40 -15 -40 2 0 14 18 25 40 11 22 18 40 15 40 -2 0 -14 -18 -25 -40z"/>
<path d="M9880 2703 c-62 -113 -80 -148 -80 -153 1 -8 49 71 81 133 32 63 32 79 -1 20z"/>
<path d="M701 2625 c23 -44 46 -84 52 -90 6 -5 -6 21 -27 58 -20 38 -33 74 -30 80 4 7 4 9 -1 5 -4 -4 -14 0 -22 10 -8 9 4 -19 28 -63z"/>
<path d="M845 2383 c15 -24 30 -43 32 -43 7 0 -31 61 -46 73 -8 7 -2 -7 14 -30z"/>
<path d="M9631 2303 c-45 -64 -75 -110 -67 -104 17 14 160 221 153 221 -3 0 -42 -52 -86 -117z"/>
<path d="M936 2248 c75 -108 181 -245 197 -255 6 -4 -6 15 -29 42 -22 28 -80 105 -129 173 -48 67 -89 122 -92 122 -2 0 21 -37 53 -82z"/>
<path d="M9465 2074 c-31 -41 -96 -121 -144 -177 -93 -109 -126 -155 -68 -96 47 47 119 135 197 239 35 47 68 91 73 98 5 6 7 12 4 12 -2 0 -30 -34 -62 -76z"/>
<path d="M1158 1954 c14 -26 202 -240 312 -354 80 -83 79 -82 -11 19 -52 57 -138 156 -193 220 -115 135 -122 143 -108 115z"/>
<path d="M9135 1684 c-95 -101 -94 -103 3 -9 45 44 82 81 82 82 0 12 -25 -9 -85 -73z"/>
<path d="M8865 1413 c-55 -54 -77 -78 -50 -56 49 41 164 153 155 153 -3 -1 -50 -44 -105 -97z"/>
<path d="M1600 1473 c0 -12 201 -202 228 -217 18 -9 -1 10 -140 144 -49 46 -88 79 -88 73z"/>
<path d="M8668 1242 c-42 -37 -83 -74 -90 -81 -13 -15 66 46 112 86 14 12 36 31 50 42 14 11 21 20 15 20 -5 0 -45 -30 -87 -67z"/>
<path d="M1852 1238 c2 -6 15 -18 29 -27 l24 -15 -24 27 c-26 29 -35 34 -29 15z"/>
<path d="M1910 1193 c0 -13 120 -116 127 -109 6 5 -30 42 -73 76 -11 8 -27 21 -37 29 -9 7 -17 9 -17 4z"/>
<path d="M8515 1114 l-40 -36 43 32 c36 27 49 40 40 40 -2 0 -21 -16 -43 -36z"/>
<path d="M2050 1082 c0 -5 16 -22 35 -36 19 -15 35 -24 35 -20 0 4 6 -1 14 -12 8 -10 17 -16 21 -12 4 3 -13 20 -37 37 -23 17 -49 35 -55 41 -7 6 -13 7 -13 2z"/>
<path d="M8390 1024 c-41 -31 -88 -63 -105 -70 -16 -8 -55 -32 -85 -54 -48 -35 -204 -132 -265 -165 -11 -6 -42 -24 -69 -40 -26 -15 -93 -52 -149 -80 -56 -29 -103 -58 -106 -66 -3 -10 3 -9 22 4 43 28 90 52 135 70 107 42 747 459 701 457 -2 0 -38 -26 -79 -56z"/>
<path d="M2170 992 c0 -9 267 -194 274 -190 3 2 11 -4 18 -13 18 -23 131 -84 126 -68 -2 6 -27 24 -56 40 -28 15 -121 75 -207 133 -85 58 -155 102 -155 98z"/>
<path d="M2600 712 c0 -8 350 -185 355 -180 2 2 -77 44 -176 95 -98 50 -179 89 -179 85z"/>
<path d="M7571 541 c-9 -6 -10 -11 -2 -15 6 -4 11 -2 11 4 0 6 5 8 10 5 6 -3 10 -1 10 4 0 13 -10 14 -29 2z"/>
<path d="M7410 465 c-25 -13 -99 -44 -165 -70 -66 -26 -133 -53 -150 -61 -33 -15 -234 -83 -262 -89 -10 -2 -74 -20 -143 -39 -69 -20 -141 -39 -160 -42 -48 -6 -70 -14 -70 -23 0 -5 26 -2 58 6 31 8 62 15 67 16 6 2 16 6 23 11 7 4 16 6 19 3 4 -5 85 15 123 30 8 3 24 8 35 10 30 5 267 84 290 96 11 6 25 12 30 13 6 1 72 27 148 58 142 58 217 93 217 101 0 8 -13 4 -60 -20z"/>
<path d="M3125 452 c15 -16 125 -63 125 -54 0 5 -26 19 -57 33 -79 33 -80 33 -68 21z"/>
<path d="M3274 385 c21 -16 32 -13 21 4 -3 6 -14 11 -23 11 -15 -1 -15 -2 2 -15z"/>
<path d="M3350 356 c14 -7 85 -33 157 -57 111 -36 135 -41 145 -30 10 11 10 13 0 7 -7 -4 -80 15 -162 43 -154 52 -184 60 -140 37z"/>
<path d="M3763 224 c12 -13 157 -53 157 -43 0 4 -24 14 -52 23 -85 24 -114 29 -105 20z"/>
<path d="M3932 175 c3 -3 14 -7 24 -9 11 -3 27 -7 37 -11 9 -4 17 -3 17 3 0 5 -14 12 -31 16 -38 7 -54 8 -47 1z"/>
<path d="M4070 140 c19 -13 30 -13 30 0 0 6 -10 10 -22 10 -19 0 -20 -2 -8 -10z"/>
<path d="M6360 129 c-193 -42 -500 -83 -707 -95 -62 -4 -110 -10 -108 -14 5 -8 136 -3 270 11 55 6 118 13 140 15 22 2 54 7 70 10 17 3 44 8 60 10 17 2 48 6 70 9 22 3 42 6 45 6 3 0 23 5 45 10 22 6 56 12 75 15 63 8 130 26 130 35 0 5 -1 8 -2 8 -2 -1 -41 -10 -88 -20z"/>
<path d="M4123 129 c14 -8 22 -8 30 0 8 8 3 11 -18 11 -26 -1 -28 -2 -12 -11z"/>
<path d="M4230 110 c19 -13 30 -13 30 0 0 6 -10 10 -22 10 -19 0 -20 -2 -8 -10z"/>
<path d="M4270 109 c0 -11 21 -16 86 -24 32 -4 70 -9 84 -12 72 -15 286 -40 293 -34 4 4 -43 13 -104 20 -62 7 -168 23 -236 35 -67 13 -123 19 -123 15z"/>
<path d="M4930 31 c0 -14 18 -23 31 -15 8 4 7 9 -2 15 -18 11 -29 11 -29 0z"/>
<path d="M5168 13 c12 -2 30 -2 40 0 9 3 -1 5 -23 4 -22 0 -30 -2 -17 -4z"/>
<path d="M5288 13 c23 -2 59 -2 80 0 20 2 1 4 -43 4 -44 0 -61 -2 -37 -4z"/>
<path d="M5438 13 c17 -2 47 -2 65 0 17 2 3 4 -33 4 -36 0 -50 -2 -32 -4z"/>
</g>
<g id="layer105" fill="#f0482d" stroke="none">
<path d="M7200 5881 c-156 -56 -194 -73 -384 -178 -43 -24 -80 -43 -82 -43 -9 0 -239 -128 -301 -169 -69 -44 -73 -49 -110 -131 -20 -46 -38 -90 -39 -97 -4 -24 129 -132 211 -172 64 -32 102 -43 189 -56 220 -32 402 -4 658 100 48 19 91 35 95 35 5 0 21 12 38 27 26 23 31 35 36 92 9 108 -16 183 -87 263 -38 42 -53 86 -35 98 7 4 43 5 80 2 84 -6 107 5 123 61 17 60 10 105 -24 155 -25 36 -34 43 -54 38 -14 -4 -34 0 -47 8 -51 34 -93 28 -267 -33z m-745 -581 c-28 -12 -37 -12 -30 0 3 6 16 10 28 9 21 0 21 -1 2 -9z"/>
<path d="M4964 4185 c-143 -25 -244 -75 -244 -120 0 -47 100 -95 253 -121 132 -23 430 -14 537 16 125 35 182 78 164 124 -10 26 -84 64 -170 87 -105 27 -418 36 -540 14z"/>
</g>
<g id="layer106" fill="#fdfdfd" stroke="none">
<path d="M5187 10294 c-2 -2 -68 -6 -148 -8 -157 -5 -297 -17 -459 -40 -148 -22 -329 -54 -370 -66 -19 -5 -93 -24 -165 -40 -71 -17 -148 -37 -170 -45 -22 -7 -80 -26 -130 -40 -49 -15 -99 -32 -109 -37 -11 -6 -31 -14 -45 -19 -14 -4 -55 -19 -91 -32 -36 -14 -99 -37 -140 -52 -109 -39 -470 -214 -615 -298 -115 -66 -242 -145 -304 -188 -35 -24 -72 -51 -84 -59 -68 -46 -213 -155 -245 -184 -20 -18 -44 -37 -53 -42 -62 -35 -464 -422 -555 -534 -10 -13 -51 -59 -89 -104 -101 -117 -158 -187 -180 -221 -10 -16 -22 -34 -27 -40 -40 -50 -164 -227 -207 -295 -368 -580 -597 -1142 -716 -1750 -13 -68 -23 -128 -55 -355 -46 -327 -41 -989 10 -1275 5 -30 19 -109 30 -175 11 -66 33 -173 50 -238 16 -65 30 -129 30 -142 0 -60 216 -669 283 -797 12 -24 31 -66 42 -93 32 -80 146 -300 209 -405 12 -19 27 -46 34 -60 22 -45 64 -114 121 -197 107 -157 119 -174 139 -196 10 -12 36 -47 56 -77 21 -30 58 -78 84 -106 26 -28 63 -73 82 -100 19 -26 51 -65 70 -87 168 -187 323 -343 425 -429 33 -28 66 -59 73 -70 7 -10 19 -18 26 -18 7 0 23 -12 37 -26 20 -23 80 -69 209 -164 14 -10 45 -33 70 -52 47 -35 229 -158 234 -158 2 0 52 -30 112 -66 118 -72 424 -234 441 -234 6 0 53 -20 105 -45 51 -25 99 -45 106 -45 7 0 20 -4 30 -9 104 -54 490 -184 640 -216 9 -2 67 -16 127 -30 61 -15 133 -30 160 -35 159 -25 329 -49 390 -55 66 -6 89 -9 160 -22 56 -9 829 -11 900 -1 39 5 135 18 215 29 250 34 420 68 743 150 68 17 369 119 447 151 98 40 113 47 255 111 200 91 257 119 320 157 33 20 112 67 175 105 134 80 234 144 307 197 28 20 67 46 86 57 96 54 468 367 602 507 97 101 291 322 365 415 126 159 317 422 331 455 2 5 34 59 70 119 164 275 301 553 386 785 19 52 41 112 49 133 42 111 44 116 113 362 16 55 36 136 46 180 9 44 25 114 35 155 25 102 50 231 60 310 4 36 15 126 24 200 33 274 31 767 -5 1025 -48 352 -63 434 -111 615 -16 63 -38 147 -48 185 -47 186 -132 423 -216 602 -19 40 -34 75 -34 78 0 15 -181 365 -241 467 -19 31 -56 94 -83 140 -27 46 -70 110 -95 143 -25 33 -60 80 -76 104 -16 24 -78 104 -137 178 -60 73 -108 135 -108 138 0 3 -15 20 -32 38 -18 19 -55 60 -83 92 -57 66 -312 317 -395 390 -30 26 -59 53 -65 59 -10 12 -242 200 -307 249 -20 15 -41 27 -47 27 -5 0 -24 12 -42 28 -18 15 -47 36 -65 47 -18 11 -102 63 -186 116 -222 139 -307 185 -523 284 -44 20 -107 50 -140 66 -57 27 -147 63 -245 96 -25 8 -72 25 -105 38 -140 54 -381 123 -560 161 -44 9 -113 25 -154 35 -41 11 -92 19 -112 19 -21 0 -49 4 -63 10 -33 12 -231 36 -416 50 -155 11 -456 20 -463 14z m37 -283 c13 -11 15 -38 9 -185 -5 -140 -3 -173 8 -182 18 -15 299 -28 318 -16 10 7 15 54 20 185 4 97 10 179 14 183 11 11 167 13 199 2 l31 -11 -7 -251 c-4 -138 -9 -343 -12 -456 -2 -113 -7 -213 -10 -222 -3 -9 -17 -18 -32 -20 -35 -4 -189 5 -195 12 -7 7 -8 93 -3 222 4 87 2 111 -10 123 -17 17 -53 20 -204 15 -83 -2 -107 -6 -117 -19 -7 -10 -12 -64 -12 -150 -1 -73 -4 -145 -8 -159 l-6 -25 -110 6 c-60 3 -114 10 -120 16 -13 13 -13 28 2 286 6 110 13 298 14 417 3 161 7 221 17 233 11 13 30 15 106 12 55 -2 99 -9 108 -16z m-828 -92 c32 -6 85 -24 117 -41 58 -31 137 -107 137 -131 0 -14 -131 -137 -146 -137 -4 0 -29 20 -55 45 -26 25 -55 45 -64 45 -8 0 -15 4 -15 9 0 5 -17 12 -37 15 -49 9 -158 -26 -197 -62 -62 -58 -84 -153 -62 -261 20 -95 50 -155 102 -208 107 -107 273 -66 340 84 13 30 29 53 38 53 34 0 176 -52 185 -67 19 -35 -46 -153 -121 -218 -56 -48 -95 -67 -200 -99 -76 -24 -94 -26 -141 -17 -29 5 -59 9 -67 8 -8 -1 -48 11 -89 27 -99 39 -182 120 -233 227 -47 100 -62 167 -61 276 2 136 36 229 116 319 100 111 282 164 453 133z m2074 -33 c145 -46 283 -89 295 -92 6 -1 52 -16 103 -33 52 -17 112 -36 134 -42 l40 -10 -7 -46 c-3 -24 -15 -65 -26 -90 l-19 -45 -43 7 c-23 4 -80 20 -127 35 -152 51 -273 81 -297 76 -17 -5 -26 -19 -37 -59 -29 -101 -29 -105 -9 -116 27 -14 231 -81 248 -81 8 0 21 -10 29 -22 26 -40 -15 -178 -53 -178 -10 0 -73 18 -140 40 -131 43 -155 47 -168 28 -10 -16 -32 -97 -33 -120 0 -20 77 -51 275 -109 77 -22 148 -45 157 -50 24 -13 22 -31 -6 -109 -26 -72 -36 -78 -102 -61 -48 12 -164 46 -184 53 -28 11 -295 96 -351 112 -88 25 -88 26 -44 179 21 73 47 159 57 192 24 74 102 335 129 430 25 90 49 145 63 145 6 0 58 -15 116 -34z m-3069 -247 c6 -13 10 -53 8 -98 -2 -42 0 -115 5 -163 l8 -88 42 -11 c114 -31 196 -101 248 -217 25 -55 31 -80 31 -138 -1 -141 -63 -205 -363 -371 -63 -36 -130 -71 -149 -79 -35 -15 -71 -11 -71 7 0 6 -13 29 -28 52 -23 34 -103 171 -283 485 -8 15 -27 50 -42 77 -15 28 -43 79 -62 113 -24 44 -32 69 -26 79 4 8 44 35 87 58 57 31 83 41 95 34 10 -5 45 -59 79 -120 35 -61 68 -113 75 -116 17 -6 109 34 129 56 13 14 14 41 8 181 l-7 165 25 24 c26 24 145 89 167 90 7 1 17 -9 24 -20z m4074 -124 c32 -4 75 -24 75 -35 0 -5 11 -20 25 -32 14 -12 25 -27 25 -34 0 -7 -25 -61 -55 -119 -30 -58 -55 -115 -55 -128 0 -28 34 -63 78 -78 40 -14 64 -4 193 82 136 91 123 88 227 35 86 -45 109 -66 96 -87 -3 -5 -63 -47 -133 -93 -69 -46 -133 -91 -140 -100 -11 -13 -11 -26 3 -79 19 -79 10 -150 -32 -234 -36 -73 -84 -127 -142 -161 -38 -22 -56 -26 -120 -26 -86 0 -134 18 -310 118 -219 123 -250 145 -250 174 0 15 11 43 24 62 24 37 82 138 278 490 128 230 153 265 178 254 8 -4 24 -8 35 -9z m-4990 -497 c14 -28 25 -57 25 -64 0 -7 13 -36 28 -65 15 -30 34 -70 41 -89 8 -19 20 -48 27 -65 22 -53 84 -215 84 -220 0 -3 21 -58 46 -123 101 -254 101 -256 52 -295 -18 -14 -50 -41 -71 -61 -21 -21 -47 -36 -61 -36 -34 0 -362 175 -635 339 -105 62 -194 114 -228 132 -41 22 -26 58 37 96 17 9 30 21 30 25 0 4 18 19 39 34 l39 25 49 -24 c32 -17 54 -22 68 -17 11 5 71 52 134 105 109 94 113 98 106 129 -19 91 -18 99 17 133 51 49 111 92 130 92 12 1 27 -17 43 -51z m3115 -238 c63 -6 138 -14 165 -20 28 -5 73 -12 100 -15 90 -10 120 -15 150 -25 17 -5 44 -11 60 -13 98 -15 483 -143 635 -212 91 -41 172 -82 285 -145 17 -9 57 -32 90 -50 276 -154 702 -499 872 -705 22 -27 61 -75 86 -105 26 -30 79 -100 119 -155 40 -55 87 -116 104 -135 47 -53 149 -223 240 -400 109 -214 220 -531 278 -790 30 -139 51 -273 67 -442 13 -146 7 -580 -10 -698 -28 -184 -44 -278 -56 -320 -7 -25 -21 -81 -30 -125 -9 -44 -33 -129 -51 -190 -19 -60 -40 -126 -46 -145 -33 -108 -220 -515 -264 -575 -12 -16 -40 -64 -63 -105 -23 -41 -48 -80 -55 -85 -7 -6 -61 -74 -118 -151 -58 -78 -144 -184 -191 -237 -47 -53 -91 -103 -99 -112 -15 -19 -90 -90 -172 -166 -33 -30 -72 -68 -88 -85 -28 -31 -253 -205 -337 -260 -192 -126 -431 -259 -546 -304 -33 -13 -65 -27 -71 -32 -55 -42 -602 -207 -739 -224 -5 0 -21 -4 -35 -7 -97 -25 -299 -47 -495 -54 -336 -11 -675 29 -1016 118 -237 62 -353 104 -624 229 -33 15 -71 32 -85 38 -14 6 -47 25 -75 41 -27 17 -71 41 -97 55 -26 14 -74 43 -107 65 -33 23 -62 41 -65 41 -8 0 -101 64 -104 73 -2 4 -9 7 -17 7 -7 0 -18 7 -26 16 -7 8 -36 31 -65 50 -71 47 -415 375 -504 480 -14 16 -34 36 -45 44 -26 18 -125 138 -125 150 0 5 -17 29 -38 53 -114 131 -366 584 -447 802 -123 334 -182 559 -222 855 -28 210 -25 702 5 900 25 158 71 374 103 485 29 99 121 369 129 375 3 3 19 37 35 75 33 82 113 245 152 313 95 165 315 476 373 527 13 11 41 43 62 70 56 71 191 209 295 301 166 147 205 179 277 229 40 28 108 74 151 104 153 106 399 238 616 331 103 44 316 120 364 130 22 5 53 13 68 19 94 36 391 92 582 110 129 12 530 13 665 1z m2963 -39 c93 -48 167 -111 221 -190 62 -88 78 -136 80 -226 1 -100 -26 -168 -91 -225 -89 -78 -166 -96 -280 -66 -51 14 -173 80 -173 95 0 3 -15 15 -32 26 -18 10 -52 34 -76 52 -34 26 -53 33 -87 33 -46 0 -55 -10 -55 -56 0 -37 25 -78 67 -111 53 -40 107 -57 184 -55 l66 1 16 -37 c24 -55 47 -125 47 -144 0 -28 -37 -40 -124 -40 -141 0 -238 46 -354 165 -93 96 -124 162 -126 267 -1 65 3 81 27 125 87 152 225 201 367 130 57 -29 153 -93 158 -106 2 -4 28 -26 58 -50 44 -34 63 -42 100 -44 39 -1 49 3 70 28 14 17 23 36 20 44 -4 8 -6 20 -6 27 0 28 -64 107 -112 138 -49 31 -59 33 -155 36 -61 3 -106 9 -112 16 -11 13 -61 158 -61 176 0 27 64 41 173 37 104 -3 110 -5 190 -46z m-7290 -2027 c9 -3 17 -10 17 -15 0 -5 6 -9 13 -9 34 0 62 -96 45 -153 -16 -54 -86 -107 -140 -107 -48 0 -102 24 -121 53 -48 74 -40 158 20 206 48 38 93 45 166 25z m8353 -660 c22 -9 54 -31 72 -50 26 -28 32 -42 32 -80 0 -106 -86 -172 -187 -143 -56 15 -94 62 -101 124 -8 76 25 125 103 153 40 14 37 14 81 -4z m-8134 -1314 c20 -77 23 -144 6 -157 -15 -11 -79 -26 -203 -48 -131 -24 -138 -28 -132 -73 8 -64 35 -206 42 -224 17 -43 -27 -69 -141 -84 -60 -7 -55 -16 -78 121 -20 114 -33 160 -50 174 -23 19 -176 -17 -176 -42 0 -19 22 -142 45 -252 42 -200 42 -193 3 -209 -18 -7 -58 -16 -89 -20 -47 -5 -59 -3 -72 12 -15 17 -38 117 -82 357 -8 44 -24 128 -35 187 -11 59 -20 114 -20 122 0 16 51 47 85 52 11 2 64 12 117 24 53 11 116 22 140 25 24 2 52 6 63 9 91 21 116 25 156 30 25 3 52 7 60 10 7 3 31 8 53 11 21 3 42 8 47 11 18 11 155 32 199 31 l45 -2 17 -65z m7893 -698 c74 -25 153 -74 213 -132 101 -98 137 -180 136 -310 0 -106 -21 -173 -110 -365 -7 -16 -20 -49 -29 -73 -8 -24 -24 -57 -36 -74 -19 -26 -26 -29 -56 -23 -18 3 -84 30 -146 60 -61 29 -143 64 -182 78 -93 32 -276 110 -347 147 -31 17 -62 30 -68 30 -21 0 -98 39 -103 53 -5 13 27 100 85 227 14 30 31 71 38 90 15 39 68 137 84 158 60 76 154 133 247 151 65 12 216 3 274 -17z m-7666 -176 c33 -67 42 -93 34 -105 -9 -16 -116 -79 -200 -120 -29 -13 -43 -26 -43 -40 0 -27 35 -107 52 -117 11 -8 58 -10 295 -13 l52 -1 50 -94 c28 -51 51 -101 51 -109 0 -33 -35 -38 -200 -31 -179 8 -184 6 -195 -57 -7 -40 -86 -159 -105 -159 -6 0 -27 -11 -48 -24 -80 -53 -199 -74 -279 -50 -94 28 -149 89 -232 258 -115 232 -143 298 -137 319 4 18 87 64 413 229 224 114 417 206 428 205 14 -1 32 -27 64 -91z m6829 -713 c37 -24 42 -28 86 -67 l39 -34 -24 -33 c-13 -19 -68 -92 -121 -163 -54 -71 -98 -136 -98 -146 0 -10 15 -29 33 -43 17 -13 52 -44 77 -67 53 -50 145 -120 158 -120 5 0 18 -10 30 -22 11 -13 53 -45 92 -73 111 -77 171 -125 177 -141 8 -21 -113 -184 -136 -184 -4 0 -91 62 -192 138 -102 75 -205 150 -229 166 -25 17 -49 35 -55 40 -17 18 -124 96 -131 96 -10 0 -93 68 -126 103 -36 38 -35 55 7 108 19 24 54 69 78 99 23 30 45 56 49 58 6 3 35 40 133 172 44 59 107 130 116 130 5 0 22 -8 37 -17z m-6387 -94 c13 -16 33 -41 44 -54 11 -13 38 -47 60 -76 53 -67 197 -238 262 -310 29 -32 55 -69 59 -83 7 -30 -21 -73 -53 -82 -11 -3 -31 -17 -44 -30 -12 -13 -30 -24 -38 -24 -20 1 -58 34 -95 85 -17 22 -32 42 -35 45 -4 3 -24 27 -45 54 -77 96 -148 166 -168 166 -25 0 -106 -58 -113 -81 -9 -26 18 -72 101 -174 79 -96 83 -113 40 -148 -47 -39 -99 -68 -116 -65 -10 2 -56 48 -103 103 -80 95 -86 100 -121 99 -41 -1 -96 -44 -96 -74 0 -10 57 -86 126 -171 69 -85 130 -164 136 -176 9 -19 6 -28 -28 -65 -45 -51 -88 -80 -108 -72 -13 5 -107 115 -251 294 -38 47 -85 104 -104 127 -69 80 -91 111 -91 131 0 14 73 87 130 130 35 27 69 55 256 209 158 130 307 248 329 261 30 17 41 15 66 -19z m5781 -626 c14 -16 38 -47 53 -71 l28 -43 -24 -25 c-13 -14 -48 -44 -79 -67 -182 -138 -270 -211 -270 -226 0 -24 88 -131 108 -131 9 0 31 12 47 26 17 13 70 55 119 91 l89 67 53 -60 c30 -32 56 -67 60 -77 8 -24 -4 -35 -125 -132 -55 -44 -103 -88 -107 -99 -8 -25 47 -100 77 -104 15 -2 46 12 80 35 88 60 183 134 192 149 4 8 14 14 21 14 8 0 19 7 27 16 19 24 68 46 87 39 9 -3 37 -32 61 -65 52 -72 50 -96 -10 -137 -22 -15 -67 -49 -99 -75 -32 -27 -61 -48 -64 -48 -4 0 -81 -56 -172 -125 -98 -73 -175 -125 -188 -124 -20 0 -102 93 -168 192 -15 22 -31 43 -36 46 -4 3 -21 24 -38 46 -16 22 -34 45 -41 50 -6 6 -22 26 -35 45 -62 91 -101 140 -109 134 -5 -3 -9 3 -9 12 0 10 -24 49 -53 88 -107 142 -108 147 -39 196 26 19 63 47 83 64 40 34 284 223 369 286 30 22 62 40 70 40 9 0 28 -12 42 -27z m-5047 -175 c150 -52 306 -175 360 -285 26 -51 29 -68 29 -148 -1 -102 -19 -155 -73 -217 -55 -63 -177 -114 -244 -104 -57 9 -151 50 -215 94 -98 66 -157 92 -192 86 -33 -7 -50 -29 -50 -64 0 -23 65 -91 110 -115 37 -19 113 -27 161 -16 58 13 73 3 114 -79 47 -93 46 -114 -6 -140 -57 -30 -196 -25 -289 10 -126 47 -249 150 -297 249 -24 48 -28 67 -27 141 1 103 16 142 82 209 55 56 120 81 209 81 59 0 192 -53 247 -98 49 -39 140 -81 171 -77 35 3 65 38 65 72 0 59 -70 135 -149 161 -42 15 -150 16 -187 2 -15 -6 -34 -8 -44 -5 -23 7 -100 169 -93 196 13 50 221 81 318 47z m4172 -387 c10 -11 34 -50 53 -88 19 -37 50 -95 69 -128 19 -33 44 -78 56 -100 12 -22 62 -111 111 -198 132 -235 155 -280 152 -301 -3 -22 -150 -106 -185 -106 -16 0 -29 12 -43 38 -12 20 -31 54 -43 74 -87 147 -136 233 -170 298 -22 41 -46 82 -53 91 -8 8 -14 18 -14 22 0 4 -21 41 -46 84 -65 110 -104 189 -104 212 0 13 26 33 88 69 48 28 92 51 99 51 7 1 20 -8 30 -18z m-3342 -108 c30 -15 57 -34 60 -43 7 -22 -20 -98 -90 -255 -21 -48 -50 -164 -42 -171 11 -11 67 23 194 119 112 84 203 148 246 173 20 12 63 1 170 -45 56 -24 57 -33 22 -129 -58 -160 -123 -331 -147 -387 -20 -47 -93 -225 -155 -382 -3 -7 -13 -15 -22 -18 -22 -7 -191 62 -192 79 -3 28 7 60 72 228 71 182 88 238 73 238 -21 0 -160 -95 -329 -224 -64 -50 -113 -84 -132 -94 -29 -16 -74 -15 -98 2 -11 7 -31 16 -45 19 -14 4 -36 15 -49 25 l-24 19 22 64 c13 35 30 81 40 104 10 22 37 90 61 150 52 133 52 135 84 210 14 33 36 90 51 127 62 163 78 204 88 216 15 19 73 8 142 -25z m2595 -366 c43 -135 60 -167 90 -167 10 0 53 12 96 26 121 39 172 51 183 44 14 -8 51 -117 51 -150 0 -33 -10 -38 -155 -83 -60 -19 -114 -41 -119 -50 -13 -21 29 -156 51 -164 22 -9 91 8 208 52 118 43 192 65 222 65 29 0 51 -34 65 -104 11 -49 10 -58 -4 -73 -22 -21 -312 -121 -590 -202 -62 -18 -67 -18 -81 -3 -12 15 -54 133 -128 362 -11 36 -25 74 -29 85 -5 11 -30 88 -55 170 -26 83 -56 176 -66 207 -10 31 -16 63 -13 72 7 17 37 30 129 55 61 15 72 16 87 4 9 -8 35 -74 58 -146z m-1337 58 c170 -36 307 -162 348 -319 34 -132 18 -318 -37 -427 -59 -118 -191 -215 -326 -239 -308 -56 -568 165 -568 483 0 126 37 233 117 339 50 66 112 109 203 141 115 40 159 44 263 22z"/>
<path d="M3325 9048 c-46 -13 -144 -73 -152 -94 -6 -15 52 -135 90 -185 16 -23 24 -26 44 -18 71 27 138 65 169 95 29 30 34 41 34 84 0 37 -6 55 -25 79 -14 16 -34 32 -43 35 -44 12 -80 13 -117 4z"/>
<path d="M7360 8952 c0 -4 -11 -20 -25 -35 -14 -15 -39 -55 -55 -89 -37 -77 -33 -86 70 -140 66 -35 81 -39 127 -36 66 6 89 26 109 94 14 48 14 56 -1 83 -16 31 -98 97 -148 119 -31 13 -77 16 -77 4z"/>
<path d="M2324 8562 c-17 -15 -40 -34 -52 -42 -30 -20 -28 -32 16 -67 38 -31 168 -103 184 -103 24 0 -26 166 -63 214 -26 33 -46 32 -85 -2z"/>
<path d="M5181 8598 c-20 -21 -37 -75 -28 -85 3 -3 37 0 74 7 74 12 137 8 199 -12 61 -20 56 -41 -28 -122 -40 -40 -80 -81 -88 -91 -37 -47 -68 -93 -84 -125 -76 -146 -136 -279 -136 -302 0 -6 -9 -30 -19 -52 -11 -23 -22 -56 -26 -74 -9 -46 11 -49 97 -17 40 15 93 31 118 36 25 5 54 11 65 13 11 3 27 1 35 -4 11 -7 1 -35 -57 -152 -106 -212 -140 -287 -179 -395 -90 -249 -120 -458 -90 -631 24 -137 60 -197 162 -273 63 -46 109 -64 234 -90 84 -18 108 -19 215 -10 169 14 185 17 320 46 66 15 134 29 150 32 37 5 147 30 385 87 102 25 223 54 270 65 47 11 137 26 201 32 193 20 294 1 451 -87 43 -23 98 -93 130 -164 16 -36 44 -94 63 -130 59 -114 76 -170 82 -260 4 -70 1 -96 -16 -145 -31 -89 -29 -98 38 -149 101 -78 172 -180 195 -281 15 -67 28 -84 96 -124 72 -43 147 -118 174 -175 20 -42 20 -89 0 -141 -8 -22 -18 -47 -20 -55 -4 -13 87 -139 115 -160 14 -10 63 -126 78 -184 30 -119 0 -274 -67 -345 -13 -13 -56 -39 -96 -58 l-73 -35 -133 4 c-121 4 -143 8 -236 40 -57 20 -111 34 -120 33 -9 -2 -30 -7 -46 -10 -16 -3 -56 -32 -90 -64 -34 -32 -91 -79 -128 -105 -38 -26 -68 -52 -68 -57 0 -5 -7 -9 -15 -9 -9 0 -46 -15 -83 -34 -134 -67 -296 -121 -457 -151 -123 -22 -322 -45 -400 -45 l-71 0 -150 -146 c-164 -160 -202 -191 -284 -230 -62 -29 -178 -73 -230 -86 -338 -87 -488 -97 -985 -62 -161 11 -295 29 -375 50 -30 8 -98 23 -150 34 -103 21 -134 29 -285 72 -55 16 -107 30 -115 32 -28 7 -137 50 -213 85 -56 25 -100 27 -117 6 -23 -28 -94 -71 -211 -128 -132 -64 -200 -88 -342 -117 -56 -12 -106 -26 -112 -31 -24 -24 94 -165 295 -349 100 -92 97 -90 103 -84 2 3 14 -6 25 -20 11 -15 22 -26 26 -26 3 0 24 -18 47 -40 23 -22 47 -40 53 -40 6 0 22 -12 35 -25 13 -14 28 -25 35 -25 6 0 21 -11 33 -24 13 -13 37 -31 55 -40 42 -21 69 -38 86 -53 7 -7 18 -13 24 -13 5 0 21 -9 35 -20 14 -11 29 -17 34 -14 5 3 9 0 9 -5 0 -6 7 -11 15 -11 8 0 15 -5 15 -11 0 -5 5 -7 10 -4 6 3 10 2 10 -3 0 -6 23 -18 50 -28 28 -10 50 -22 50 -26 0 -4 9 -8 20 -8 11 0 20 -5 20 -11 0 -5 5 -7 10 -4 6 3 10 1 10 -5 0 -6 5 -8 10 -5 6 3 10 1 10 -5 0 -6 5 -8 10 -5 6 3 10 2 10 -3 0 -5 6 -9 13 -9 23 -2 122 -43 125 -53 2 -6 8 -7 14 -4 6 4 13 1 17 -5 4 -6 16 -13 27 -15 55 -11 81 -20 96 -34 10 -8 29 -15 43 -15 14 0 25 -4 25 -9 0 -5 4 -7 9 -3 5 3 12 1 16 -5 4 -6 11 -8 16 -5 5 4 46 -5 92 -19 45 -15 114 -33 152 -41 144 -31 171 -37 205 -41 19 -3 60 -10 90 -16 30 -6 70 -11 88 -11 17 0 32 -3 32 -7 0 -4 24 -7 53 -8 28 0 142 -4 252 -7 278 -9 454 7 775 69 229 45 556 160 815 286 501 246 948 625 1258 1067 60 85 145 218 158 246 16 35 35 66 52 85 26 28 130 244 186 386 99 248 184 564 211 781 6 50 15 119 20 155 17 124 23 402 11 571 -31 446 -144 839 -364 1274 -90 178 -135 257 -149 263 -5 2 -8 10 -8 18 0 8 -4 14 -8 14 -5 0 -15 12 -23 28 -8 15 -22 36 -31 46 -10 11 -18 23 -18 27 0 4 -13 23 -30 41 -16 18 -30 38 -30 44 0 6 -16 26 -35 45 -19 19 -35 37 -35 41 0 7 -23 34 -76 88 -13 14 -24 28 -24 32 0 4 -65 71 -145 150 -80 79 -145 141 -145 140 0 -2 -28 21 -62 51 -35 30 -115 94 -178 142 -63 49 -118 93 -121 98 -3 5 -9 8 -13 8 -14 -3 -66 30 -80 50 -15 22 -37 37 -96 64 -19 9 -41 22 -50 29 -8 8 -35 19 -60 26 -24 7 -74 27 -110 45 -191 96 -454 191 -690 249 -253 62 -465 89 -772 100 -141 5 -149 4 -167 -16z"/>
<path d="M7475 5890 c-22 -10 -75 -35 -118 -56 -43 -20 -91 -47 -105 -59 -15 -12 -38 -28 -52 -35 -32 -16 -51 -31 -179 -135 -197 -160 -438 -281 -633 -320 -124 -24 -122 -19 -43 -91 101 -92 200 -139 339 -159 220 -32 402 -4 658 100 48 19 91 35 95 35 5 0 21 12 38 27 26 23 31 35 36 92 9 108 -16 183 -87 263 -38 42 -53 86 -35 98 7 4 43 5 80 2 41 -3 76 0 89 7 25 13 47 81 43 131 -3 37 -54 120 -74 120 -7 0 -30 -9 -52 -20z"/>
<path d="M7640 5432 c0 -27 44 -141 55 -146 8 -3 19 2 26 10 10 13 8 24 -12 60 -26 48 -69 95 -69 76z"/>
<path d="M3795 4553 c-92 -29 -223 -92 -355 -171 -94 -57 -128 -82 -212 -154 -65 -57 -208 -217 -208 -234 0 -4 -9 -17 -19 -28 -27 -30 -111 -186 -118 -218 -5 -25 -2 -28 19 -28 109 0 429 168 638 335 112 90 255 247 295 324 26 52 65 172 59 182 -7 13 -41 10 -99 -8z"/>
<path d="M3024 4347 c-125 -127 -193 -205 -283 -330 -34 -48 -65 -87 -68 -87 -4 0 -27 13 -53 30 -177 114 -442 230 -524 230 -35 0 -36 -1 -30 -27 22 -90 102 -287 170 -418 25 -50 62 -121 82 -160 19 -38 38 -72 42 -75 4 -3 14 -18 23 -35 8 -16 29 -43 46 -60 25 -23 35 -27 49 -19 19 12 58 81 126 224 25 52 50 102 55 110 5 8 30 56 55 106 65 129 241 403 308 478 20 22 55 62 79 89 80 90 33 56 -77 -56z"/>
<path d="M7968 4362 c-57 -7 20 -72 86 -72 42 0 45 8 14 38 -29 26 -65 39 -100 34z"/>
<path d="M9095 3808 c-32 -17 -85 -71 -85 -85 0 -7 -3 -13 -8 -13 -13 0 -42 -78 -42 -113 0 -29 5 -35 53 -58 55 -28 162 -73 316 -134 120 -48 127 -45 164 63 32 97 34 128 6 186 -26 56 -61 87 -148 131 -64 32 -78 35 -153 35 -46 0 -92 -6 -103 -12z"/>
<path d="M1260 3493 c-8 -3 -48 -21 -87 -40 -86 -40 -88 -47 -42 -149 37 -82 52 -101 97 -120 31 -12 38 -12 82 7 74 32 94 58 88 116 -5 48 -59 171 -81 185 -14 9 -35 9 -57 1z"/>
<path d="M4817 1239 c-50 -15 -120 -95 -142 -164 -21 -67 -22 -185 -2 -248 32 -102 92 -147 197 -147 52 0 68 5 105 30 87 60 125 146 125 282 0 60 -5 84 -29 134 -39 82 -79 113 -157 119 -32 2 -76 -1 -97 -6z"/>
</g>


</svg>